<?xml version="1.0" encoding="UTF-8"?>
<!DOCTYPE svg PUBLIC "-//W3C//DTD SVG 1.1//EN" "http://www.w3.org/Graphics/SVG/1.1/DTD/svg11.dtd">
<!-- Creator: CorelDRAW 2020 (64-Bit) -->
<svg xmlns="http://www.w3.org/2000/svg" xml:space="preserve" width="23.8524mm" height="19.0073mm" version="1.1" style="shape-rendering:geometricPrecision; text-rendering:geometricPrecision; image-rendering:optimizeQuality; fill-rule:evenodd; clip-rule:evenodd"
viewBox="0 0 18.65 14.86"
 xmlns:xlink="http://www.w3.org/1999/xlink"
 xmlns:xodm="http://www.corel.com/coreldraw/odm/2003">
 <defs>
  <style type="text/css">
   <![CDATA[
    .fil0 {fill:#5F5F5D;fill-rule:nonzero}
   ]]>
  </style>
 </defs>
 <g id="Capa_x0020_1">
  <metadata id="CorelCorpID_0Corel-Layer"/>
  <g id="_2252306384864">
   <g id="__x0023_000000ff">
    <g>
     <path class="fil0" d="M3.8 0l11.05 0c0.44,0.02 0.87,0.2 1.17,0.52 0.39,0.38 0.59,0.94 0.57,1.48 -0.02,0.82 0.01,1.64 0.15,2.44 0.11,0.56 0.26,1.12 0.55,1.61 0.28,0.49 0.78,0.86 1.36,0.9l0 0.94c-0.42,0.04 -0.82,0.23 -1.09,0.55 -0.28,0.31 -0.47,0.69 -0.6,1.09 -0.29,0.89 -0.37,1.84 -0.38,2.78 -0.01,0.41 0.06,0.84 -0.08,1.24 -0.22,0.72 -0.9,1.29 -1.66,1.31l-11.05 0c-0.69,-0.01 -1.32,-0.49 -1.59,-1.12 -0.12,-0.27 -0.16,-0.56 -0.16,-0.85 0.02,-0.84 -0,-1.68 -0.15,-2.51 -0.1,-0.54 -0.26,-1.08 -0.54,-1.56 -0.21,-0.34 -0.49,-0.65 -0.87,-0.8 -0.16,-0.07 -0.33,-0.11 -0.5,-0.13l0 -0.94c0.31,-0.03 0.62,-0.14 0.87,-0.34 0.42,-0.32 0.66,-0.81 0.82,-1.3 0.3,-0.94 0.38,-1.94 0.38,-2.92 0,-0.32 -0.04,-0.65 0.04,-0.97 0.09,-0.36 0.27,-0.69 0.54,-0.94 0.31,-0.3 0.73,-0.47 1.15,-0.5l0 0zm2.68 3.64c0,2.48 0,4.95 0,7.43 0,0.09 -0.01,0.19 0.01,0.28 0.05,0.04 0.11,0.02 0.17,0.03 1.01,-0 2.02,0 3.02,-0 0.35,-0.01 0.71,-0.04 1.06,-0.12 0.61,-0.15 1.19,-0.5 1.49,-1.06 0.35,-0.68 0.35,-1.56 -0.11,-2.19 -0.35,-0.47 -0.92,-0.74 -1.49,-0.8 0.01,-0.07 0.1,-0.05 0.14,-0.08 0.56,-0.14 1.03,-0.59 1.21,-1.14 0.14,-0.4 0.11,-0.84 -0.03,-1.24 -0.16,-0.45 -0.53,-0.81 -0.96,-1.01 -0.44,-0.22 -0.94,-0.27 -1.42,-0.27 -0.92,0 -1.85,0 -2.77,0 -0.1,0 -0.19,-0.01 -0.29,0.01 -0.06,0.02 -0.04,0.11 -0.04,0.16z"/>
    </g>
    <path class="fil0" d="M7.74 4.48c0.55,-0 1.11,-0 1.66,0 0.38,0 0.8,0.06 1.09,0.32 0.21,0.17 0.31,0.44 0.33,0.7 0.04,0.34 -0.07,0.71 -0.34,0.94 -0.32,0.28 -0.75,0.37 -1.16,0.39 -0.53,0 -1.06,0 -1.59,0 -0,-0.79 0,-1.57 -0,-2.36z"/>
    <path class="fil0" d="M7.74 10.38c0,-0.87 -0,-1.74 0,-2.6 0.58,0 1.15,-0 1.73,0 0.46,0.01 0.96,0.07 1.33,0.37 0.23,0.18 0.36,0.46 0.39,0.74 0.05,0.39 -0.05,0.84 -0.36,1.1 -0.21,0.2 -0.49,0.28 -0.76,0.34 -0.26,0.04 -0.52,0.06 -0.78,0.05 -0.52,-0 -1.04,0 -1.55,-0z"/>
   </g>
  </g>
 </g>
</svg>
