<?xml version="1.0" encoding="UTF-8"?>
<!DOCTYPE svg PUBLIC "-//W3C//DTD SVG 1.1//EN" "http://www.w3.org/Graphics/SVG/1.1/DTD/svg11.dtd">
<!-- Creator: CorelDRAW 2020 (64-Bit) -->
<svg xmlns="http://www.w3.org/2000/svg" xml:space="preserve" width="20.4135mm" height="22.936mm" version="1.1" style="shape-rendering:geometricPrecision; text-rendering:geometricPrecision; image-rendering:optimizeQuality; fill-rule:evenodd; clip-rule:evenodd"
viewBox="0 0 27.42 30.81"
 xmlns:xlink="http://www.w3.org/1999/xlink"
 xmlns:xodm="http://www.corel.com/coreldraw/odm/2003">
 <defs>
  <style type="text/css">
   <![CDATA[
    .fil0 {fill:#5F5F5D;fill-rule:nonzero}
   ]]>
  </style>
 </defs>
 <g id="Capa_x0020_1">
  <metadata id="CorelCorpID_0Corel-Layer"/>
  <g>
   <path class="fil0" d="M-0 0c9.14,-0 18.28,-0 27.42,0 -0.87,9.28 -1.72,18.56 -2.57,27.84 -3.64,0.97 -7.28,1.96 -10.92,2.94 -0.3,0.11 -0.59,-0.06 -0.87,-0.12 -3.49,-0.94 -6.99,-1.89 -10.48,-2.82 -0.86,-9.28 -1.7,-18.56 -2.57,-27.84l0 0zm4.99 5.61c0.17,1.13 0.33,2.27 0.5,3.4 2.88,-0.04 5.76,-0.03 8.64,-0.06 -2.78,1.16 -5.54,2.35 -8.32,3.5 0.05,1.13 0.14,2.26 0.21,3.39 3.95,0 7.89,0 11.84,0 -0.1,1.47 -0.19,2.94 -0.28,4.41 -1.26,0.38 -2.51,0.78 -3.77,1.13 -1.3,-0.29 -2.58,-0.7 -3.88,-1.03 -0.09,-0.88 -0.15,-1.76 -0.22,-2.65 -1.14,-0 -2.28,-0 -3.42,0 0.17,1.73 0.29,3.47 0.45,5.21 2.15,0.63 4.3,1.25 6.45,1.88 0.24,0.06 0.48,0.18 0.73,0.09 2.29,-0.64 4.57,-1.27 6.86,-1.9 0.28,-3.5 0.58,-7.01 0.87,-10.51 -2.67,0 -5.34,-0.01 -8.01,0.01 2.77,-1.17 5.55,-2.34 8.32,-3.52 0.09,-1.12 0.16,-2.25 0.25,-3.37 -5.74,0.01 -11.47,0.03 -17.21,0.03z"/>
  </g>
 </g>
</svg>
