<?xml version="1.0" encoding="UTF-8"?>
<!DOCTYPE svg PUBLIC "-//W3C//DTD SVG 1.1//EN" "http://www.w3.org/Graphics/SVG/1.1/DTD/svg11.dtd">
<!-- Creator: CorelDRAW 2020 (64-Bit) -->
<svg xmlns="http://www.w3.org/2000/svg" xml:space="preserve" width="15.4648mm" height="23.194mm" version="1.1" style="shape-rendering:geometricPrecision; text-rendering:geometricPrecision; image-rendering:optimizeQuality; fill-rule:evenodd; clip-rule:evenodd"
viewBox="0 0 12.44 18.66"
 xmlns:xlink="http://www.w3.org/1999/xlink"
 xmlns:xodm="http://www.corel.com/coreldraw/odm/2003">
 <defs>
  <style type="text/css">
   <![CDATA[
    .fil0 {fill:#5F5F5D;fill-rule:nonzero}
   ]]>
  </style>
 </defs>
 <g id="Capa_x0020_1">
  <metadata id="CorelCorpID_0Corel-Layer"/>
  <g id="_1479880571712">
   <g id="__x0023_f24e1eff">
    <path class="fil0" d="M1.15 0.69c0.55,-0.44 1.25,-0.69 1.96,-0.69 1.03,0 2.07,0 3.1,0 0.01,2.07 0,4.14 0,6.21 -1.05,0 -2.09,-0.01 -3.14,0 -0.82,-0 -1.63,-0.35 -2.2,-0.95 -0.56,-0.57 -0.88,-1.38 -0.87,-2.18 0,-0.92 0.44,-1.82 1.15,-2.39z"/>
   </g>
   <g id="__x0023_ff7262ff">
    <path class="fil0" d="M6.21 0c1.06,-0 2.11,0 3.17,-0 0.75,0 1.48,0.3 2.04,0.8 0.55,0.49 0.91,1.18 1,1.91 0.13,0.91 -0.19,1.87 -0.82,2.53 -0.57,0.61 -1.4,0.98 -2.24,0.98l-0.03 -0c-1.04,-0.01 -2.07,-0 -3.11,-0 -0,-2.07 0,-4.14 -0,-6.21z"/>
   </g>
   <g id="__x0023_a259ffff">
    <path class="fil0" d="M3.07 6.22c1.05,-0.01 2.09,-0 3.14,-0 0,0.96 -0.01,1.92 0.01,2.87 -0,0.17 -0,0.34 0,0.5 -0.02,0.95 -0,1.9 -0.01,2.85 -1.1,-0 -2.2,0 -3.3,-0 -0.86,-0.06 -1.69,-0.48 -2.22,-1.16 -0.6,-0.73 -0.83,-1.75 -0.6,-2.67 0.21,-0.92 0.87,-1.71 1.73,-2.1 0.39,-0.18 0.83,-0.28 1.26,-0.29z"/>
   </g>
   <g id="__x0023_1abcfeff">
    <path class="fil0" d="M9.32 6.22l0.03 0c0.8,0.01 1.6,0.34 2.17,0.91 0.69,0.68 1.03,1.69 0.88,2.65 -0.12,0.85 -0.62,1.65 -1.34,2.13 -0.65,0.44 -1.48,0.62 -2.25,0.49 -0.99,-0.16 -1.88,-0.83 -2.3,-1.74 -0.16,-0.33 -0.24,-0.7 -0.3,-1.07 -0,-0.17 -0,-0.34 -0,-0.5 0.07,-0.58 0.26,-1.15 0.61,-1.61 0.57,-0.78 1.52,-1.26 2.49,-1.26z"/>
   </g>
   <g id="__x0023_0acf83ff">
    <path class="fil0" d="M1.47 12.91c0.43,-0.27 0.93,-0.42 1.44,-0.47 1.1,0 2.2,-0 3.3,0 0,1.03 -0,2.06 0,3.1 0.02,0.76 -0.28,1.51 -0.78,2.08 -0.65,0.74 -1.66,1.14 -2.63,1.03 -0.73,-0.07 -1.42,-0.4 -1.93,-0.93 -0.6,-0.6 -0.92,-1.46 -0.87,-2.3 0.04,-1.01 0.6,-1.98 1.47,-2.5z"/>
   </g>
  </g>
 </g>
</svg>
