<?xml version="1.0" encoding="UTF-8"?>
<!DOCTYPE svg PUBLIC "-//W3C//DTD SVG 1.1//EN" "http://www.w3.org/Graphics/SVG/1.1/DTD/svg11.dtd">
<!-- Creator: CorelDRAW 2020 (64-Bit) -->
<svg xmlns="http://www.w3.org/2000/svg" xml:space="preserve" width="6.6194mm" height="6.4564mm" version="1.1" style="shape-rendering:geometricPrecision; text-rendering:geometricPrecision; image-rendering:optimizeQuality; fill-rule:evenodd; clip-rule:evenodd"
viewBox="0 0 7.05 6.88"
 xmlns:xlink="http://www.w3.org/1999/xlink"
 xmlns:xodm="http://www.corel.com/coreldraw/odm/2003">
 <defs>
  <style type="text/css">
   <![CDATA[
    .fil0 {fill:#5F5F5D;fill-rule:nonzero}
   ]]>
  </style>
 </defs>
 <g id="Capa_x0020_1">
  <metadata id="CorelCorpID_0Corel-Layer"/>
  <path class="fil0" d="M3.14 0.02c0.5,-0.05 1,-0.01 1.48,0.15 0.44,0.14 0.86,0.38 1.21,0.68 0.52,0.45 0.91,1.05 1.09,1.71 0.09,0.3 0.13,0.62 0.13,0.93l0 0.08c-0.01,0.33 -0.05,0.66 -0.15,0.97 -0.19,0.63 -0.57,1.2 -1.05,1.64 -0.32,0.28 -0.68,0.5 -1.08,0.64 -0.07,0.03 -0.15,0.07 -0.23,0.05 -0.09,-0.01 -0.14,-0.09 -0.14,-0.17 -0,-0.34 0,-0.68 -0,-1.01 -0,-0.22 -0.07,-0.46 -0.24,-0.61 0.2,-0.03 0.39,-0.05 0.58,-0.12 0.29,-0.1 0.57,-0.27 0.75,-0.52 0.14,-0.22 0.22,-0.47 0.26,-0.73 0.04,-0.29 0.04,-0.59 -0.06,-0.86 -0.06,-0.17 -0.16,-0.32 -0.28,-0.45 0.06,-0.16 0.09,-0.34 0.07,-0.52 -0.01,-0.15 -0.06,-0.29 -0.11,-0.42 -0.16,-0.04 -0.32,0.03 -0.46,0.09 -0.18,0.07 -0.34,0.17 -0.51,0.27 -0.57,-0.16 -1.19,-0.16 -1.76,-0 -0.14,-0.09 -0.29,-0.18 -0.45,-0.25 -0.16,-0.07 -0.34,-0.15 -0.52,-0.12 -0.09,0.24 -0.14,0.51 -0.08,0.76 0.01,0.06 0.03,0.11 0.05,0.17 -0.01,0.02 -0.02,0.03 -0.03,0.05 -0.21,0.23 -0.32,0.54 -0.32,0.85 -0.01,0.28 0.02,0.56 0.12,0.82 0.06,0.17 0.14,0.33 0.26,0.46 0.13,0.15 0.3,0.25 0.48,0.33 0.23,0.11 0.49,0.15 0.75,0.18 -0.13,0.12 -0.2,0.3 -0.23,0.47 -0.1,0.04 -0.21,0.07 -0.32,0.08 -0.09,0.01 -0.19,0.02 -0.28,-0.01 -0.16,-0.05 -0.3,-0.17 -0.39,-0.31 -0.04,-0.07 -0.09,-0.15 -0.15,-0.21 -0.06,-0.06 -0.14,-0.11 -0.22,-0.15 -0.1,-0.05 -0.21,-0.07 -0.32,-0.04 -0.03,0.01 -0.06,0.04 -0.04,0.07 0.05,0.12 0.19,0.15 0.27,0.25 0.09,0.1 0.16,0.21 0.21,0.33 0.04,0.08 0.06,0.17 0.12,0.24 0.11,0.15 0.28,0.24 0.46,0.26 0.21,0.04 0.43,0.04 0.64,-0.01 0,0.21 0,0.43 0,0.64 0,0.06 -0.02,0.12 -0.06,0.15 -0.05,0.04 -0.11,0.04 -0.17,0.03 -0.54,-0.18 -1.04,-0.49 -1.43,-0.9 -0.28,-0.3 -0.52,-0.64 -0.69,-1.02 -0.2,-0.44 -0.29,-0.91 -0.3,-1.39l0 -0.07c0.01,-0.19 0.02,-0.38 0.05,-0.56 0.12,-0.72 0.48,-1.4 1,-1.92 0.56,-0.55 1.3,-0.91 2.09,-0.99z"/>
 </g>
</svg>
