<?xml version="1.0" encoding="UTF-8"?>
<!DOCTYPE svg PUBLIC "-//W3C//DTD SVG 1.1//EN" "http://www.w3.org/Graphics/SVG/1.1/DTD/svg11.dtd">
<!-- Creator: CorelDRAW 2020 (64-Bit) -->
<svg xmlns="http://www.w3.org/2000/svg" xml:space="preserve" width="20.4292mm" height="23.1939mm" version="1.1" style="shape-rendering:geometricPrecision; text-rendering:geometricPrecision; image-rendering:optimizeQuality; fill-rule:evenodd; clip-rule:evenodd"
viewBox="0 0 28.71 32.59"
 xmlns:xlink="http://www.w3.org/1999/xlink"
 xmlns:xodm="http://www.corel.com/coreldraw/odm/2003">
 <defs>
  <style type="text/css">
   <![CDATA[
    .fil0 {fill:#5F5F5D}
   ]]>
  </style>
 </defs>
 <g id="Capa_x0020_1">
  <metadata id="CorelCorpID_0Corel-Layer"/>
  <path class="fil0" d="M-0 0c0.87,9.78 1.74,19.55 2.61,29.33 3.8,1.07 7.59,2.14 11.39,3.21 0.24,0.07 0.47,0.06 0.71,-0.02 3.8,-1.07 7.6,-2.13 11.4,-3.19 0.87,-9.78 1.74,-19.55 2.61,-29.33 -9.57,0 -19.14,0 -28.71,0zm5.34 6c6.01,0 12.02,0 18.03,0 -0.11,1.19 -0.22,2.38 -0.33,3.57 -4.58,0 -9.16,0 -13.74,0 0.1,1.23 0.2,2.46 0.31,3.69 4.38,0 8.75,0 13.13,0 -0.34,3.7 -0.68,7.4 -1.02,11.1 -2.33,0.64 -4.66,1.27 -6.99,1.93 -0.44,0.17 -0.89,-0.03 -1.32,-0.14 -2.15,-0.6 -4.31,-1.19 -6.47,-1.79 -0.15,-1.89 -0.3,-3.78 -0.45,-5.67 1.19,-0 2.38,-0 3.57,0 0.09,0.95 0.18,1.9 0.26,2.85 1.2,0.33 2.4,0.64 3.59,0.98 0.46,0.16 0.93,-0.04 1.38,-0.15 1.01,-0.28 2.03,-0.55 3.04,-0.82 0.15,-1.55 0.3,-3.1 0.45,-4.65 -4.16,0 -8.32,0 -12.48,0 -0.32,-3.63 -0.64,-7.25 -0.96,-10.88z"/>
 </g>
</svg>
