<?xml version="1.0" encoding="UTF-8"?>
<!DOCTYPE svg PUBLIC "-//W3C//DTD SVG 1.1//EN" "http://www.w3.org/Graphics/SVG/1.1/DTD/svg11.dtd">
<!-- Creator: CorelDRAW 2020 (64-Bit) -->
<svg xmlns="http://www.w3.org/2000/svg" xml:space="preserve" width="6.4562mm" height="6.4562mm" version="1.1" style="shape-rendering:geometricPrecision; text-rendering:geometricPrecision; image-rendering:optimizeQuality; fill-rule:evenodd; clip-rule:evenodd"
viewBox="0 0 6.71 6.71"
 xmlns:xlink="http://www.w3.org/1999/xlink"
 xmlns:xodm="http://www.corel.com/coreldraw/odm/2003">
 <defs>
  <style type="text/css">
   <![CDATA[
    .fil0 {fill:#5F5F5D;fill-rule:nonzero}
   ]]>
  </style>
 </defs>
 <g id="Capa_x0020_1">
  <metadata id="CorelCorpID_0Corel-Layer"/>
  <path class="fil0" d="M4.78 0l-2.84 0c-1.07,0 -1.94,0.87 -1.94,1.94l0 2.84c0,1.07 0.87,1.94 1.94,1.94l2.84 0c1.07,0 1.94,-0.87 1.94,-1.94l0 -2.84c0,-1.07 -0.87,-1.94 -1.94,-1.94zm1.32 4.83l0 0c0,0.71 -0.58,1.29 -1.29,1.29l-2.9 0c-0.71,0 -1.29,-0.58 -1.29,-1.29l0 -2.9c0,-0.71 0.58,-1.29 1.29,-1.29l2.9 0c0.71,0 1.29,0.58 1.29,1.29l0 2.9z"/>
  <path class="fil0" d="M3.36 1.63c-0.96,0 -1.74,0.78 -1.74,1.74 0,0.96 0.78,1.74 1.74,1.74 0.96,0 1.74,-0.78 1.74,-1.74 0,-0.96 -0.78,-1.74 -1.74,-1.74zm0 2.87l0 0c-0.62,0 -1.13,-0.51 -1.13,-1.13 0,-0.62 0.51,-1.13 1.13,-1.13 0.62,0 1.13,0.51 1.13,1.13 0,0.62 -0.51,1.13 -1.13,1.13z"/>
  <path class="fil0" d="M5.16 1.16c-0.22,0 -0.41,0.18 -0.41,0.41 0,0.22 0.18,0.41 0.41,0.41 0.22,0 0.41,-0.18 0.41,-0.41 0,-0.22 -0.18,-0.41 -0.41,-0.41z"/>
 </g>
</svg>
