<?xml version="1.0" encoding="UTF-8"?>
<!DOCTYPE svg PUBLIC "-//W3C//DTD SVG 1.1//EN" "http://www.w3.org/Graphics/SVG/1.1/DTD/svg11.dtd">
<!-- Creator: CorelDRAW 2020 (64-Bit) -->
<svg xmlns="http://www.w3.org/2000/svg" xml:space="preserve" width="23.1938mm" height="23.1939mm" version="1.1" style="shape-rendering:geometricPrecision; text-rendering:geometricPrecision; image-rendering:optimizeQuality; fill-rule:evenodd; clip-rule:evenodd"
viewBox="0 0 32.65 32.65"
 xmlns:xlink="http://www.w3.org/1999/xlink"
 xmlns:xodm="http://www.corel.com/coreldraw/odm/2003">
 <defs>
  <style type="text/css">
   <![CDATA[
    .fil0 {fill:#5F5F5D;fill-rule:nonzero}
   ]]>
  </style>
 </defs>
 <g id="Capa_x0020_1">
  <metadata id="CorelCorpID_0Corel-Layer"/>
  <g id="_1480324985856">
   <g id="__x0023_f0db4fff">
    <g>
     <path class="fil0" d="M-0 0l32.65 0 0 32.65 -32.65 0 0 -32.65 0 0zm22.67 15.23c-0.7,0.31 -1.32,0.8 -1.73,1.45 -0.46,0.71 -0.66,1.57 -0.62,2.4 0.03,0.63 0.15,1.26 0.43,1.82 0.33,0.68 0.88,1.23 1.5,1.65 1.13,0.78 2.47,1.16 3.68,1.8 0.4,0.22 0.8,0.51 0.96,0.95 0.16,0.43 0.12,0.96 -0.18,1.33 -0.3,0.39 -0.78,0.59 -1.25,0.67 -0.77,0.12 -1.58,0.01 -2.25,-0.4 -0.56,-0.34 -0.98,-0.86 -1.32,-1.42 -0.83,0.48 -1.67,0.96 -2.5,1.45 0.55,1.07 1.44,1.96 2.53,2.48 0.84,0.4 1.76,0.6 2.68,0.63 0.24,0.02 0.48,0.02 0.72,0 0.84,-0.04 1.69,-0.21 2.45,-0.58 0.6,-0.29 1.15,-0.72 1.54,-1.27 0.51,-0.7 0.74,-1.58 0.72,-2.45 0.01,-0.75 -0.14,-1.51 -0.51,-2.17 -0.32,-0.58 -0.81,-1.06 -1.35,-1.44 -0.65,-0.46 -1.37,-0.81 -2.1,-1.13 -0.61,-0.27 -1.23,-0.5 -1.81,-0.83 -0.34,-0.2 -0.69,-0.45 -0.84,-0.83 -0.16,-0.42 -0.14,-0.93 0.12,-1.3 0.22,-0.32 0.6,-0.52 0.98,-0.56 0.37,-0.04 0.76,-0.01 1.1,0.14 0.51,0.22 0.87,0.68 1.12,1.15 0.14,-0.06 0.26,-0.15 0.38,-0.23 0.67,-0.43 1.34,-0.86 2.01,-1.29 -0.36,-0.64 -0.83,-1.23 -1.44,-1.65 -0.63,-0.45 -1.39,-0.68 -2.16,-0.76 -0.97,-0.1 -1.98,-0.02 -2.88,0.38l0 0zm-8 -0.24c0,3.05 0,6.1 0,9.16 -0.01,0.61 0.03,1.22 -0.04,1.83 -0.05,0.37 -0.17,0.75 -0.45,1 -0.3,0.28 -0.74,0.35 -1.13,0.34 -0.36,0.01 -0.72,-0.08 -1.01,-0.29 -0.43,-0.32 -0.71,-0.8 -0.96,-1.26 -0.12,0.03 -0.21,0.11 -0.32,0.17 -0.73,0.44 -1.45,0.88 -2.18,1.32 0.06,0.18 0.16,0.34 0.26,0.51 0.41,0.69 0.99,1.27 1.69,1.67 0.97,0.54 2.11,0.7 3.2,0.61 0.76,-0.06 1.52,-0.26 2.17,-0.66 0.64,-0.39 1.14,-0.99 1.42,-1.68 0.3,-0.7 0.4,-1.47 0.41,-2.23 0,-3.49 0,-6.98 0,-10.47 -1.02,-0 -2.04,-0 -3.06,-0z"/>
    </g>
   </g>
  </g>
 </g>
</svg>
