<?xml version="1.0" encoding="UTF-8"?>
<!DOCTYPE svg PUBLIC "-//W3C//DTD SVG 1.1//EN" "http://www.w3.org/Graphics/SVG/1.1/DTD/svg11.dtd">
<!-- Creator: CorelDRAW 2020 (64-Bit) -->
<svg xmlns="http://www.w3.org/2000/svg" xml:space="preserve" width="22.1676mm" height="23.4584mm" version="1.1" style="shape-rendering:geometricPrecision; text-rendering:geometricPrecision; image-rendering:optimizeQuality; fill-rule:evenodd; clip-rule:evenodd"
viewBox="0 0 28.66 30.33"
 xmlns:xlink="http://www.w3.org/1999/xlink"
 xmlns:xodm="http://www.corel.com/coreldraw/odm/2003">
 <defs>
  <style type="text/css">
   <![CDATA[
    .fil0 {fill:#5F5F5D;fill-rule:nonzero}
   ]]>
  </style>
 </defs>
 <g id="Capa_x0020_1">
  <metadata id="CorelCorpID_0Corel-Layer"/>
  <g id="_1479932006944">
   <g id="__x0023_0868acff">
    <path class="fil0" d="M16.32 0c-0.28,0.72 -0.52,1.5 -0.37,2.28 0.2,1.43 1.06,2.73 2.24,3.56 0.78,0.56 1.71,0.87 2.66,0.98 0.81,0.14 1.67,0.01 2.4,-0.36 0.42,-0.2 0.73,-0.56 1.03,-0.89 -0.42,0.82 -1.04,1.57 -1.88,1.99 -1.02,0.52 -2.21,0.53 -3.31,0.31 -1.51,-0.4 -2.82,-1.47 -3.52,-2.86 -0.57,-1.13 -0.65,-2.52 -0.1,-3.67 0.22,-0.48 0.57,-0.88 0.85,-1.33z"/>
    <path class="fil0" d="M10.25 3.69c0.36,-1.03 1.13,-1.82 1.69,-2.73 -0.29,0.63 -0.58,1.27 -0.67,1.96 -0.26,1.43 0.03,2.93 0.68,4.23 1.54,3.14 5.13,5.2 8.63,4.76 1.23,-0.15 2.43,-0.65 3.36,-1.47 0.37,-0.28 0.64,-0.67 0.95,-1.01 -0.57,1.49 -1.68,2.79 -3.1,3.53 -1.15,0.6 -2.47,0.87 -3.77,0.82 -0.83,-0.01 -1.68,-0.06 -2.46,-0.37 -2.36,-0.84 -4.38,-2.69 -5.25,-5.05 -0.56,-1.48 -0.63,-3.17 -0.06,-4.65z"/>
    <path class="fil0" d="M6.44 2.99c-0.35,0.82 -0.66,1.66 -0.76,2.56 -0.25,1.76 0.09,3.57 0.79,5.18 1.18,2.67 3.41,4.83 6.06,6.04 1.7,0.8 3.61,1.11 5.48,1.01 1.79,-0.08 3.58,-0.65 5.02,-1.74 0.5,-0.38 0.93,-0.84 1.34,-1.32 -0.56,1.28 -1.43,2.44 -2.49,3.35 -1.49,1.3 -3.4,2.08 -5.37,2.25 -1.28,0.16 -2.57,0.03 -3.83,-0.18 -2.33,-0.61 -4.47,-1.91 -6.07,-3.71 -1.98,-2.19 -3.16,-5.18 -2.86,-8.15 0.1,-0.84 0.31,-1.68 0.68,-2.45 0.48,-1.07 1.32,-1.9 2.01,-2.84z"/>
    <g>
     <path class="fil0" d="M5.48 22.77c0.7,-0.46 1.6,-0.63 2.42,-0.47 0.56,0.09 1.1,0.38 1.44,0.84 0.41,0.57 0.48,1.33 0.34,2 -0.17,0.69 -0.44,1.35 -0.69,2.03 0.23,0.01 0.47,0.01 0.7,0.04 -0.1,0.39 -0.2,0.77 -0.31,1.16 -1,0.08 -2.02,0.01 -3.03,0.04 -0.72,0.02 -1.54,-0.09 -2.03,-0.68 -0.5,-0.65 -0.51,-1.53 -0.35,-2.3 0.2,-1 0.63,-2.04 1.5,-2.64l0 0zm1.05 0.86c-0.48,0.18 -0.75,0.66 -0.92,1.12 -0.18,0.52 -0.28,1.08 -0.21,1.63 0.05,0.35 0.33,0.68 0.7,0.71 0.52,0.05 1.06,0.05 1.58,0.01 0.2,-0.7 0.41,-1.39 0.59,-2.09 0.07,-0.42 0.07,-0.93 -0.27,-1.23 -0.4,-0.34 -1,-0.32 -1.47,-0.15z"/>
    </g>
    <path class="fil0" d="M26.89 23.08c0.07,-0.09 0.15,-0.24 0.29,-0.22 0.49,-0.01 0.99,-0.01 1.48,-0 -1.05,1.46 -2.19,2.86 -3.24,4.33 -0.16,0.38 -0.2,0.79 -0.34,1.18 -0.48,-0 -0.96,0.02 -1.44,-0.01 0.09,-0.39 0.23,-0.77 0.28,-1.16 -0.19,-0.71 -0.39,-1.43 -0.6,-2.13 0.49,0 0.98,-0 1.47,0.02 0.07,0.25 0.11,0.52 0.22,0.76 0.62,-0.92 1.25,-1.84 1.88,-2.76z"/>
    <g>
     <path class="fil0" d="M16.56 23.69c0.72,-0.26 1.53,-0.3 2.26,-0.07 0.44,0.13 0.76,0.54 0.79,1 0.1,0.61 -0.06,1.21 -0.2,1.8 -1.04,0.02 -2.08,-0.02 -3.12,0.01 -0.1,0.3 0.06,0.69 0.4,0.74 0.81,0.1 1.63,-0 2.44,0.06l0.03 0.05c-0.06,0.38 -0.15,0.77 -0.25,1.14 -0.8,-0.01 -1.61,0.02 -2.41,-0.01 -0.59,-0.04 -1.27,-0.26 -1.49,-0.86 -0.2,-0.68 -0.03,-1.4 0.14,-2.07 0.2,-0.75 0.65,-1.5 1.4,-1.78l0 0zm-0.07 1.72c0.54,-0 1.08,-0 1.62,-0 0.31,0.02 0.21,-0.45 0.06,-0.59 -0.54,-0.44 -1.57,-0.14 -1.68,0.59l0 0zm2.6 0.65c-0.05,0.14 -0,0.19 0.14,0.15 0.05,-0.14 0,-0.19 -0.14,-0.15z"/>
    </g>
    <path class="fil0" d="M2.41 23.55c0.45,-0.02 0.9,-0.01 1.35,-0.01 -0.08,0.39 -0.12,0.8 -0.28,1.17 -0.44,-0.01 -0.87,-0 -1.31,-0.01 0.02,-0.4 0.15,-0.77 0.23,-1.16z"/>
    <path class="fil0" d="M10.81 23.58c0.41,-0.11 0.86,-0.02 1.29,-0.01 -0.22,0.93 -0.39,1.87 -0.57,2.8 -0.04,0.26 -0.07,0.65 0.22,0.76 0.39,0.09 0.81,0.05 1.21,0.03 0.16,-0.82 0.36,-1.63 0.52,-2.45 0.1,-0.4 0.15,-0.81 0.29,-1.19 0.4,0.01 0.81,0.03 1.21,0.03 -0.3,1.6 -0.66,3.2 -1.01,4.79 -0.85,0 -1.71,0.04 -2.56,-0 -0.44,-0.01 -0.89,-0.23 -1.08,-0.64 -0.25,-0.56 -0.15,-1.18 -0.03,-1.76 0.18,-0.79 0.3,-1.59 0.51,-2.37z"/>
    <path class="fil0" d="M20.75 23.56c0.97,-0.01 1.94,0.01 2.91,-0 0.28,-0 0.59,0.07 0.78,0.29 0.18,0.26 0.19,0.59 0.28,0.89 -0.91,0.03 -1.83,0.01 -2.74,0.01 -0.1,-0.01 -0.25,0.01 -0.25,0.14 -0.26,1.15 -0.47,2.3 -0.72,3.45 -0.42,0.05 -0.85,0.03 -1.28,0.01 0.32,-1.6 0.66,-3.2 1.02,-4.79z"/>
    <path class="fil0" d="M2.05 25.05c0.45,0 0.94,-0.07 1.37,0.04 -0.15,0.68 -0.3,1.36 -0.44,2.05 -0.2,0.77 -0.28,1.58 -0.61,2.3 -0.18,0.39 -0.51,0.76 -0.95,0.84 -0.47,0.1 -0.95,0.02 -1.43,0.05 0.03,-0.42 0.14,-0.84 0.27,-1.24 0.19,0 0.39,0.02 0.58,-0.01 0.3,-0.16 0.42,-0.51 0.5,-0.83 0.23,-1.07 0.47,-2.13 0.7,-3.2z"/>
   </g>
  </g>
 </g>
</svg>
