<?xml version="1.0" encoding="UTF-8"?>
<!DOCTYPE svg PUBLIC "-//W3C//DTD SVG 1.1//EN" "http://www.w3.org/Graphics/SVG/1.1/DTD/svg11.dtd">
<!-- Creator: CorelDRAW 2020 (64-Bit) -->
<svg xmlns="http://www.w3.org/2000/svg" xml:space="preserve" width="6.4565mm" height="6.4564mm" version="1.1" style="shape-rendering:geometricPrecision; text-rendering:geometricPrecision; image-rendering:optimizeQuality; fill-rule:evenodd; clip-rule:evenodd"
viewBox="0 0 6.71 6.71"
 xmlns:xlink="http://www.w3.org/1999/xlink"
 xmlns:xodm="http://www.corel.com/coreldraw/odm/2003">
 <defs>
  <style type="text/css">
   <![CDATA[
    .fil0 {fill:#5F5F5D}
   ]]>
  </style>
 </defs>
 <g id="Capa_x0020_1">
  <metadata id="CorelCorpID_0Corel-Layer"/>
  <g>
   <path class="fil0" d="M0.61 0.03c-0.26,0.07 -0.48,0.27 -0.57,0.53 -0.1,0.27 -0.04,0.59 0.14,0.81 0.18,0.23 0.49,0.35 0.78,0.3 0.36,-0.05 0.66,-0.35 0.71,-0.71 0.04,-0.28 -0.06,-0.58 -0.28,-0.76 -0.21,-0.19 -0.52,-0.25 -0.78,-0.18l0 0zm3.28 3.02c0,-0.19 0,-0.37 -0,-0.56 -0.47,0 -0.94,-0 -1.41,0 0,1.41 0,2.82 0,4.23 0.47,0 0.94,0 1.41,0 0,-0.83 -0,-1.65 0,-2.48 -0.01,-0.38 0.33,-0.72 0.7,-0.71 0.38,-0 0.71,0.34 0.7,0.71 0,0.83 0,1.65 0,2.48 0.47,0 0.94,0 1.41,0 0,-0.86 -0,-1.73 0,-2.59 -0,-0.11 -0.01,-0.22 -0.02,-0.33 -0.12,-0.82 -0.93,-1.48 -1.77,-1.39 -0.41,0.06 -0.79,0.3 -1.03,0.64l0 0zm-3.76 -0.56c0,1.41 0,2.82 0,4.23 0.47,0 0.94,0 1.41,0 0,-1.41 0,-2.82 0,-4.23 -0.47,0 -0.94,-0 -1.41,0z"/>
  </g>
 </g>
</svg>
