<?xml version="1.0" encoding="UTF-8"?>
<!DOCTYPE svg PUBLIC "-//W3C//DTD SVG 1.1//EN" "http://www.w3.org/Graphics/SVG/1.1/DTD/svg11.dtd">
<!-- Creator: CorelDRAW 2020 (64-Bit) -->
<svg xmlns="http://www.w3.org/2000/svg" xml:space="preserve" width="7.8166mm" height="12.4425mm" version="1.1" style="shape-rendering:geometricPrecision; text-rendering:geometricPrecision; image-rendering:optimizeQuality; fill-rule:evenodd; clip-rule:evenodd"
viewBox="0 0 1.38 2.19"
 xmlns:xlink="http://www.w3.org/1999/xlink"
 xmlns:xodm="http://www.corel.com/coreldraw/odm/2003">
 <defs>
  <style type="text/css">
   <![CDATA[
    .fil0 {fill:#5F5F5D;fill-rule:nonzero}
   ]]>
  </style>
 </defs>
 <g id="Capa_x0020_1">
  <metadata id="CorelCorpID_0Corel-Layer"/>
  <g id="_2287005394112">
   <g id="__x0023_010101ff">
    <g>
     <path class="fil0" d="M0.39 0.07c0.13,-0.06 0.27,-0.08 0.41,-0.06 0.19,0.03 0.37,0.15 0.47,0.31 0.09,0.15 0.13,0.33 0.09,0.5 -0.04,0.14 -0.09,0.28 -0.16,0.42 -0.15,0.33 -0.33,0.64 -0.51,0.95 -0.05,-0.08 -0.1,-0.16 -0.14,-0.24 -0.1,-0.18 -0.2,-0.36 -0.29,-0.55 -0.09,-0.19 -0.18,-0.37 -0.23,-0.57 -0.04,-0.14 -0.02,-0.3 0.04,-0.43 0.07,-0.14 0.18,-0.26 0.32,-0.33l0 0zm0.26 0.25c-0.16,0.02 -0.3,0.15 -0.33,0.31 -0.03,0.14 0.03,0.28 0.15,0.37 0.09,0.07 0.21,0.09 0.32,0.06 0.16,-0.04 0.28,-0.19 0.28,-0.36 0.01,-0.12 -0.05,-0.24 -0.14,-0.31 -0.08,-0.06 -0.18,-0.09 -0.28,-0.08z"/>
    </g>
   </g>
  </g>
 </g>
</svg>
