<?xml version="1.0" encoding="UTF-8"?>
<!DOCTYPE svg PUBLIC "-//W3C//DTD SVG 1.1//EN" "http://www.w3.org/Graphics/SVG/1.1/DTD/svg11.dtd">
<!-- Creator: CorelDRAW 2020 (64-Bit) -->
<svg xmlns="http://www.w3.org/2000/svg" xml:space="preserve" width="6.6262mm" height="4.8462mm" version="1.1" style="shape-rendering:geometricPrecision; text-rendering:geometricPrecision; image-rendering:optimizeQuality; fill-rule:evenodd; clip-rule:evenodd"
viewBox="0 0 7.07 5.17"
 xmlns:xlink="http://www.w3.org/1999/xlink"
 xmlns:xodm="http://www.corel.com/coreldraw/odm/2003">
 <defs>
  <style type="text/css">
   <![CDATA[
    .fil0 {fill:#5F5F5D;fill-rule:nonzero}
   ]]>
  </style>
 </defs>
 <g id="Capa_x0020_1">
  <metadata id="CorelCorpID_0Corel-Layer"/>
  <path class="fil0" d="M0.06 0.01c0.26,-0.03 0.51,0.02 0.77,-0.01 0.55,-0.01 1.1,-0.01 1.65,0.01 0.39,-0.03 0.78,0.02 1.18,-0.01 0.89,-0 1.78,-0 2.67,-0 0.23,0.01 0.46,-0.01 0.69,0.02 -0.77,0.69 -1.56,1.36 -2.33,2.04 -0.38,0.33 -0.76,0.66 -1.14,1 -0.68,-0.59 -1.36,-1.19 -2.04,-1.78 -0.48,-0.43 -0.97,-0.83 -1.44,-1.27zm1.98 2.79c0.1,-0.13 0.19,-0.27 0.31,-0.39 0.3,0.27 0.61,0.53 0.91,0.8 0.09,0.08 0.17,0.16 0.27,0.22 0.04,-0.02 0.07,-0.04 0.1,-0.07 0.2,-0.18 0.41,-0.36 0.61,-0.53 0.16,-0.14 0.31,-0.29 0.49,-0.41 0.69,0.91 1.37,1.83 2.06,2.74 -2.09,0.01 -4.17,0 -6.26,0 -0.08,0 -0.17,-0 -0.25,-0 0.08,-0.14 0.19,-0.27 0.29,-0.4 0.49,-0.65 0.98,-1.31 1.47,-1.96zm3.41 -1.03c0.54,-0.46 1.06,-0.93 1.6,-1.39 0.01,0.21 0.01,0.41 0.01,0.62 0,1.08 0,2.16 0,3.23 -0,0.29 0.01,0.58 -0.01,0.88 -0.16,-0.24 -0.34,-0.45 -0.5,-0.69 -0.54,-0.72 -1.08,-1.45 -1.63,-2.17 0.17,-0.17 0.36,-0.31 0.54,-0.48zm-5.45 -1.39c0.21,0.16 0.4,0.35 0.6,0.52 0.51,0.45 1.04,0.89 1.54,1.35 -0.26,0.34 -0.51,0.69 -0.77,1.03 -0.46,0.61 -0.91,1.23 -1.38,1.84 -0,-1.58 0,-3.16 0.01,-4.74z"/>
 </g>
</svg>
