<?xml version="1.0" encoding="UTF-8"?>
<!DOCTYPE svg PUBLIC "-//W3C//DTD SVG 1.1//EN" "http://www.w3.org/Graphics/SVG/1.1/DTD/svg11.dtd">
<!-- Creator: CorelDRAW 2020 (64-Bit) -->
<svg xmlns="http://www.w3.org/2000/svg" xml:space="preserve" width="10.2354mm" height="9.4702mm" version="1.1" style="shape-rendering:geometricPrecision; text-rendering:geometricPrecision; image-rendering:optimizeQuality; fill-rule:evenodd; clip-rule:evenodd"
viewBox="0 0 2.36 2.18"
 xmlns:xlink="http://www.w3.org/1999/xlink"
 xmlns:xodm="http://www.corel.com/coreldraw/odm/2003">
 <defs>
  <style type="text/css">
   <![CDATA[
    .fil0 {fill:#5F5F5D}
   ]]>
  </style>
 </defs>
 <g id="Capa_x0020_1">
  <metadata id="CorelCorpID_0Corel-Layer"/>
  <path class="fil0" d="M0.2 0.08c-0.11,0.1 -0.18,0.24 -0.19,0.39 -0.02,0.21 0.06,0.42 0.18,0.6 0.09,0.13 0.18,0.26 0.28,0.37 0.16,0.18 0.34,0.35 0.55,0.47 0.13,0.08 0.28,0.13 0.43,0.19 0.11,0.03 0.21,0.07 0.32,0.08 0.05,0.01 0.1,-0 0.15,-0.01 0.11,-0.01 0.21,-0.07 0.29,-0.13 0.05,-0.04 0.11,-0.09 0.13,-0.16 0.02,-0.08 0.04,-0.16 0.03,-0.24 -0,-0.03 -0.03,-0.04 -0.05,-0.05 -0.12,-0.07 -0.25,-0.12 -0.38,-0.18 -0.05,-0.02 -0.1,-0.05 -0.15,-0.05 -0.03,-0 -0.05,0.02 -0.07,0.04 -0.05,0.07 -0.11,0.14 -0.17,0.21 -0.02,0.02 -0.04,0.04 -0.06,0.04 -0.05,0.01 -0.09,-0.02 -0.13,-0.04 -0.24,-0.1 -0.46,-0.27 -0.62,-0.49 -0.05,-0.07 -0.11,-0.14 -0.14,-0.22 0.01,-0.02 0.01,-0.04 0.03,-0.05 0.05,-0.05 0.09,-0.1 0.13,-0.16 0.02,-0.03 0.04,-0.07 0.04,-0.1 0,-0.03 -0.02,-0.06 -0.03,-0.09 -0.06,-0.13 -0.11,-0.27 -0.17,-0.4 -0.02,-0.04 -0.04,-0.08 -0.08,-0.09 -0.05,-0 -0.1,-0 -0.14,-0.01 -0.07,-0.01 -0.13,0.03 -0.18,0.08l0 -0z"/>
 </g>
</svg>
