<?xml version="1.0" encoding="UTF-8"?>
<!DOCTYPE svg PUBLIC "-//W3C//DTD SVG 1.1//EN" "http://www.w3.org/Graphics/SVG/1.1/DTD/svg11.dtd">
<!-- Creator: CorelDRAW 2020 (64-Bit) -->
<svg xmlns="http://www.w3.org/2000/svg" xml:space="preserve" width="23.2497mm" height="11.7849mm" version="1.1" style="shape-rendering:geometricPrecision; text-rendering:geometricPrecision; image-rendering:optimizeQuality; fill-rule:evenodd; clip-rule:evenodd"
viewBox="0 0 27.3 13.84"
 xmlns:xlink="http://www.w3.org/1999/xlink"
 xmlns:xodm="http://www.corel.com/coreldraw/odm/2003">
 <defs>
  <style type="text/css">
   <![CDATA[
    .fil0 {fill:#5F5F5D;fill-rule:nonzero}
   ]]>
  </style>
 </defs>
 <g id="Capa_x0020_1">
  <metadata id="CorelCorpID_0Corel-Layer"/>
  <g id="_1480349751136">
   <g id="__x0023_2a4758ff">
    <g>
     <path class="fil0" d="M12.08 0.04c3.23,-0.17 6.52,0.16 9.57,1.26 1.57,0.59 3.11,1.39 4.3,2.6 0.74,0.77 1.31,1.77 1.34,2.86 0.06,0.9 -0.28,1.79 -0.8,2.51 -0.9,1.27 -2.27,2.11 -3.65,2.78 -2.83,1.26 -5.95,1.77 -9.04,1.79 -3.36,0.01 -6.78,-0.53 -9.81,-2.02 -1.32,-0.69 -2.62,-1.58 -3.4,-2.88 -0.63,-1 -0.79,-2.32 -0.31,-3.42 0.33,-0.82 0.91,-1.5 1.56,-2.09 1.15,-0.97 2.51,-1.67 3.93,-2.17 2.03,-0.73 4.17,-1.1 6.32,-1.23l0 0zm0.25 1.52c-0.49,2.45 -0.96,4.91 -1.47,7.36 0.53,0 1.06,-0 1.6,0 0.09,-0.24 0.1,-0.5 0.16,-0.74 0.22,-1.16 0.47,-2.32 0.67,-3.48 0.49,-0.02 0.98,0 1.47,-0.01 0.22,-0.01 0.45,0.03 0.63,0.17 0.22,0.2 0.18,0.53 0.14,0.79 -0.23,1.09 -0.41,2.19 -0.67,3.27 0.55,0 1.1,0 1.65,0 0.15,-0.86 0.35,-1.71 0.5,-2.57 0.1,-0.59 0.33,-1.19 0.18,-1.78 -0.16,-0.55 -0.74,-0.82 -1.26,-0.92 -0.78,-0.13 -1.58,-0.04 -2.37,-0.07 0.14,-0.67 0.24,-1.35 0.39,-2.02 -0.54,0 -1.07,-0 -1.61,0l0 0zm-8.24 9.6c0.54,0 1.07,-0.01 1.6,0.01 0.15,-0.75 0.26,-1.5 0.4,-2.25 0.69,0 1.39,0 2.08,-0 0.67,0.02 1.34,-0.21 1.87,-0.61 0.58,-0.52 0.98,-1.24 1.1,-2.01 0.11,-0.63 0.06,-1.33 -0.33,-1.85 -0.42,-0.57 -1.15,-0.82 -1.84,-0.85 -1.14,-0.03 -2.29,0.02 -3.43,-0.02 -0.49,2.53 -0.97,5.07 -1.46,7.6l0 0zm14.18 -7.59c-0.46,2.53 -0.98,5.06 -1.44,7.59 0.53,-0 1.05,-0.01 1.58,0.01 0.17,-0.74 0.29,-1.5 0.41,-2.25 0.71,0 1.42,0 2.13,-0 0.53,0 1.06,-0.15 1.53,-0.4 0.79,-0.51 1.29,-1.39 1.4,-2.31 0.11,-0.66 0.02,-1.41 -0.46,-1.91 -0.46,-0.5 -1.16,-0.7 -1.82,-0.71 -1.11,-0.01 -2.22,0 -3.33,-0.01z"/>
    </g>
    <path class="fil0" d="M6.91 4.7c0.72,0.05 1.5,-0.16 2.17,0.2 0.36,0.18 0.44,0.62 0.42,0.99 -0.04,0.53 -0.18,1.1 -0.56,1.49 -0.27,0.31 -0.7,0.41 -1.09,0.43 -0.51,0.02 -1.02,-0 -1.53,0.01 0.19,-1.04 0.43,-2.07 0.6,-3.12z"/>
    <path class="fil0" d="M19.64 4.71c0.51,-0.02 1.03,-0.02 1.54,0 0.42,0.04 0.94,0.23 1.02,0.7 0.09,0.63 -0.05,1.32 -0.42,1.85 -0.29,0.41 -0.83,0.53 -1.3,0.56 -0.48,0.01 -0.95,-0 -1.43,-0.01 0.2,-1.03 0.41,-2.06 0.6,-3.09z"/>
   </g>
  </g>
 </g>
</svg>
