<?xml version="1.0" encoding="UTF-8"?>
<!DOCTYPE svg PUBLIC "-//W3C//DTD SVG 1.1//EN" "http://www.w3.org/Graphics/SVG/1.1/DTD/svg11.dtd">
<!-- Creator: CorelDRAW 2020 (64-Bit) -->
<svg xmlns="http://www.w3.org/2000/svg" xml:space="preserve" width="23.2497mm" height="20.6833mm" version="1.1" style="shape-rendering:geometricPrecision; text-rendering:geometricPrecision; image-rendering:optimizeQuality; fill-rule:evenodd; clip-rule:evenodd"
viewBox="0 0 30.39 27.03"
 xmlns:xlink="http://www.w3.org/1999/xlink"
 xmlns:xodm="http://www.corel.com/coreldraw/odm/2003">
 <defs>
  <style type="text/css">
   <![CDATA[
    .fil0 {fill:#5F5F5D;fill-rule:nonzero}
   ]]>
  </style>
 </defs>
 <g id="Capa_x0020_1">
  <metadata id="CorelCorpID_0Corel-Layer"/>
  <g id="_1481471744432">
   <g id="__x0023_00d8ffff">
    <g>
     <path class="fil0" d="M20.42 0.11c0.58,-0.13 1.2,-0.17 1.78,-0.01 0.41,0.11 0.79,0.34 1.09,0.64 0.39,0.38 0.65,0.87 0.83,1.39 0.32,0.93 0.4,1.92 0.38,2.89 -0.03,1.16 -0.21,2.31 -0.48,3.43 1.32,0.38 2.62,0.89 3.8,1.61 0.49,0.3 0.95,0.64 1.37,1.04 0.38,0.36 0.71,0.78 0.94,1.25 0.2,0.41 0.3,0.87 0.26,1.32 -0.04,0.54 -0.26,1.04 -0.56,1.48 -0.54,0.78 -1.3,1.38 -2.1,1.87 -1.13,0.69 -2.37,1.19 -3.64,1.57 0.32,1.31 0.51,2.66 0.47,4 -0.02,0.66 -0.11,1.33 -0.29,1.97 -0.14,0.48 -0.34,0.94 -0.63,1.34 -0.25,0.35 -0.58,0.65 -0.97,0.84 -0.43,0.22 -0.92,0.29 -1.4,0.28 -0.6,-0.02 -1.19,-0.17 -1.74,-0.39 -0.96,-0.37 -1.85,-0.93 -2.67,-1.55 -0.56,-0.42 -1.08,-0.88 -1.58,-1.37 -0.74,0.72 -1.54,1.37 -2.41,1.93 -0.91,0.58 -1.89,1.07 -2.95,1.28 -0.76,0.15 -1.59,0.13 -2.27,-0.25 -0.65,-0.36 -1.09,-1.01 -1.34,-1.69 -0.31,-0.83 -0.4,-1.71 -0.4,-2.59 -0,-1.26 0.21,-2.52 0.51,-3.74 -1.07,-0.31 -2.12,-0.71 -3.1,-1.24 -0.9,-0.49 -1.76,-1.09 -2.42,-1.88 -0.35,-0.42 -0.64,-0.9 -0.78,-1.44 -0.11,-0.42 -0.1,-0.86 0.01,-1.28 0.14,-0.53 0.45,-1.01 0.81,-1.42 0.44,-0.5 0.96,-0.91 1.52,-1.27 1.22,-0.78 2.59,-1.31 3.99,-1.71 -0.24,-0.99 -0.42,-1.99 -0.49,-3.01 -0.04,-0.63 -0.04,-1.27 0.03,-1.9 0.07,-0.62 0.21,-1.25 0.48,-1.82 0.25,-0.55 0.64,-1.05 1.18,-1.35 0.56,-0.32 1.23,-0.38 1.86,-0.31 0.82,0.1 1.6,0.4 2.33,0.77 1.26,0.66 2.4,1.54 3.42,2.52 0.78,-0.75 1.61,-1.44 2.51,-2.03 0.83,-0.53 1.73,-0.99 2.69,-1.21l0 0zm-0.32 1.45c-0.55,0.2 -1.07,0.48 -1.56,0.79 -0.87,0.55 -1.67,1.21 -2.41,1.93 0.93,1 1.78,2.08 2.57,3.2 1.37,0.13 2.73,0.33 4.07,0.64 0.27,-1.11 0.44,-2.24 0.45,-3.38 -0,-0.69 -0.06,-1.38 -0.26,-2.04 -0.13,-0.4 -0.31,-0.81 -0.63,-1.1 -0.23,-0.21 -0.54,-0.3 -0.84,-0.31 -0.47,-0.02 -0.94,0.1 -1.38,0.26l0 0zm-11.81 -0.1c-0.29,0.14 -0.49,0.4 -0.63,0.67 -0.21,0.4 -0.32,0.85 -0.39,1.3 -0.1,0.68 -0.1,1.36 -0.05,2.05 0.07,0.89 0.23,1.77 0.44,2.63 1.34,-0.3 2.69,-0.5 4.05,-0.63 0.8,-1.12 1.65,-2.2 2.59,-3.2 -0.88,-0.84 -1.84,-1.6 -2.91,-2.19 -0.64,-0.34 -1.31,-0.64 -2.04,-0.74 -0.36,-0.04 -0.74,-0.04 -1.07,0.11l0 0zm5.12 5.9c1.2,-0.06 2.4,-0.05 3.59,0 -0.56,-0.75 -1.15,-1.47 -1.79,-2.16 -0.64,0.69 -1.24,1.41 -1.81,2.16l0 0zm-0.92 1.36c-0.08,-0.01 -0.1,0.08 -0.14,0.12 -1.01,1.49 -1.9,3.05 -2.68,4.67 0.8,1.67 1.74,3.28 2.78,4.81 1.84,0.12 3.69,0.12 5.53,-0.01 0.16,-0.23 0.31,-0.47 0.46,-0.7 0.84,-1.33 1.62,-2.7 2.31,-4.11 -0.82,-1.65 -1.74,-3.25 -2.77,-4.78 -1.82,-0.14 -3.66,-0.14 -5.48,-0.01l0 0zm-4.48 0.64c0.28,0.89 0.6,1.77 0.97,2.63 0.55,-1.06 1.15,-2.1 1.79,-3.1 -0.92,0.12 -1.84,0.27 -2.75,0.47l0 0zm11.62 -0.47c0.64,1.01 1.24,2.04 1.8,3.1 0.37,-0.85 0.7,-1.73 0.97,-2.62 -0.91,-0.21 -1.84,-0.37 -2.77,-0.48l0 0zm-16.49 2.32c-0.47,0.3 -0.92,0.65 -1.28,1.07 -0.25,0.29 -0.47,0.62 -0.54,1.01 -0.06,0.31 0.03,0.62 0.17,0.89 0.2,0.38 0.49,0.71 0.81,1 0.43,0.39 0.92,0.72 1.43,1.01 0.94,0.53 1.96,0.93 3,1.23 0.4,-1.3 0.89,-2.56 1.46,-3.8 0.01,-0.04 0.06,-0.08 0.03,-0.13 -0.57,-1.24 -1.07,-2.5 -1.46,-3.8 -1.26,0.36 -2.5,0.83 -3.61,1.53l0 0zm20.05 -0.13c-0.3,0.82 -0.65,1.62 -1.01,2.41 0.6,1.25 1.12,2.53 1.54,3.84 0.66,-0.2 1.32,-0.43 1.95,-0.71 0.83,-0.37 1.65,-0.82 2.34,-1.42 0.35,-0.31 0.68,-0.65 0.9,-1.07 0.14,-0.28 0.22,-0.6 0.15,-0.91 -0.1,-0.4 -0.35,-0.74 -0.63,-1.04 -0.38,-0.4 -0.82,-0.73 -1.29,-1.02 -1.08,-0.67 -2.27,-1.12 -3.49,-1.48 -0.15,0.46 -0.3,0.93 -0.48,1.39l0 0zm-3.56 7.07c0.95,-0.12 1.9,-0.26 2.84,-0.49 -0.3,-0.9 -0.64,-1.79 -1.02,-2.67 -0.56,1.08 -1.17,2.13 -1.82,3.16l0 0zm-11.64 -0.43c0.92,0.2 1.86,0.34 2.8,0.45 -0.65,-1.02 -1.26,-2.06 -1.82,-3.13 -0.37,0.88 -0.71,1.77 -0.98,2.68l0 0zm10.71 1.83c-0.78,1.13 -1.62,2.22 -2.55,3.24 0.33,0.31 0.66,0.62 1.01,0.91 0.79,0.65 1.64,1.23 2.58,1.64 0.49,0.21 1.02,0.37 1.56,0.39 0.33,0.01 0.67,-0.05 0.94,-0.25 0.28,-0.21 0.46,-0.52 0.6,-0.83 0.21,-0.49 0.31,-1.02 0.36,-1.54 0.08,-0.79 0.04,-1.59 -0.05,-2.38 -0.08,-0.61 -0.18,-1.21 -0.34,-1.81 -1.35,0.32 -2.73,0.51 -4.11,0.64l0 0zm-11.07 -0.58c-0.29,1.17 -0.48,2.38 -0.47,3.59 0.01,0.6 0.08,1.21 0.26,1.78 0.12,0.36 0.28,0.72 0.55,1 0.18,0.18 0.41,0.3 0.66,0.34 0.45,0.08 0.91,0.01 1.34,-0.11 0.47,-0.13 0.91,-0.32 1.34,-0.54 1.12,-0.59 2.12,-1.37 3.03,-2.25 -0.94,-1.01 -1.81,-2.1 -2.61,-3.23 -1.37,-0.11 -2.74,-0.3 -4.09,-0.59l0 0zm5.78 0.69c0.57,0.76 1.18,1.49 1.83,2.19 0.63,-0.7 1.23,-1.44 1.78,-2.2 -1.2,0.05 -2.41,0.05 -3.61,0.01z"/>
    </g>
    <path class="fil0" d="M14.86 10.8c0.6,-0.08 1.23,0.06 1.75,0.38 0.71,0.43 1.2,1.19 1.28,2.01 0.06,0.56 -0.05,1.14 -0.33,1.63 -0.26,0.46 -0.66,0.85 -1.13,1.09 -0.51,0.26 -1.1,0.35 -1.66,0.26 -0.81,-0.13 -1.55,-0.65 -1.94,-1.37 -0.33,-0.58 -0.42,-1.29 -0.26,-1.94 0.19,-0.84 0.82,-1.57 1.62,-1.89 0.22,-0.09 0.45,-0.15 0.68,-0.18z"/>
   </g>
  </g>
 </g>
</svg>
