<?xml version="1.0" encoding="UTF-8"?>
<!DOCTYPE svg PUBLIC "-//W3C//DTD SVG 1.1//EN" "http://www.w3.org/Graphics/SVG/1.1/DTD/svg11.dtd">
<!-- Creator: CorelDRAW 2020 (64-Bit) -->
<svg xmlns="http://www.w3.org/2000/svg" xml:space="preserve" width="4.3904mm" height="61.5558mm" version="1.1" style="shape-rendering:geometricPrecision; text-rendering:geometricPrecision; image-rendering:optimizeQuality; fill-rule:evenodd; clip-rule:evenodd"
viewBox="0 0 0.87 12.19"
 xmlns:xlink="http://www.w3.org/1999/xlink"
 xmlns:xodm="http://www.corel.com/coreldraw/odm/2003">
 <defs>
  <style type="text/css">
   <![CDATA[
    .fil1 {fill:#C3A07A;fill-rule:nonzero}
    .fil0 {fill:white;fill-rule:nonzero}
   ]]>
  </style>
 </defs>
 <g id="Capa_x0020_1">
  <metadata id="CorelCorpID_0Corel-Layer"/>
  <g id="_2250797905072">
   <path class="fil0" d="M0.59 12.19l0 -0.17c0.03,0 0.06,-0.01 0.08,-0.03 0.03,-0.03 0.05,-0.08 0.05,-0.14 0,-0.05 -0.01,-0.09 -0.02,-0.12 -0.02,-0.04 -0.05,-0.06 -0.09,-0.06 -0.03,0 -0.05,0.01 -0.07,0.04 -0.01,0.02 -0.02,0.05 -0.03,0.11l-0.02 0.09c-0.02,0.09 -0.04,0.15 -0.06,0.18 -0.04,0.05 -0.1,0.08 -0.18,0.08 -0.06,0 -0.12,-0.02 -0.16,-0.06 -0.06,-0.05 -0.09,-0.14 -0.09,-0.26 0,-0.11 0.03,-0.2 0.1,-0.26 0.05,-0.04 0.11,-0.07 0.17,-0.07l0 0.17c-0.03,0 -0.06,0.01 -0.08,0.03 -0.03,0.03 -0.05,0.07 -0.05,0.14 0,0.04 0.01,0.07 0.02,0.1 0.02,0.03 0.04,0.05 0.08,0.05 0.03,0 0.05,-0.01 0.06,-0.03 0.01,-0.01 0.02,-0.03 0.02,-0.06l0.05 -0.2c0.02,-0.07 0.04,-0.12 0.07,-0.15 0.04,-0.04 0.09,-0.07 0.16,-0.07 0.08,0 0.15,0.03 0.19,0.08 0.05,0.06 0.08,0.14 0.08,0.24 0,0.13 -0.03,0.23 -0.1,0.29 -0.05,0.04 -0.11,0.06 -0.18,0.06zm-0.16 -1.16c-0.12,0 -0.21,-0.03 -0.29,-0.08 -0.06,-0.04 -0.1,-0.1 -0.12,-0.17 -0.02,-0.05 -0.03,-0.1 -0.03,-0.15 0,-0.05 0.01,-0.1 0.03,-0.15 0.03,-0.07 0.07,-0.13 0.12,-0.17 0.07,-0.05 0.17,-0.08 0.29,-0.08 0.12,0 0.21,0.03 0.29,0.08 0.06,0.04 0.1,0.1 0.12,0.17 0.02,0.05 0.03,0.1 0.03,0.15 0,0.05 -0.01,0.1 -0.03,0.15 -0.03,0.07 -0.07,0.13 -0.12,0.17 -0.07,0.05 -0.17,0.08 -0.29,0.08zm0 -0.17c0.1,0 0.18,-0.03 0.23,-0.08 0.04,-0.04 0.06,-0.09 0.06,-0.15 0,-0.06 -0.02,-0.11 -0.06,-0.15 -0.05,-0.05 -0.13,-0.08 -0.23,-0.08 -0.1,0 -0.18,0.03 -0.23,0.08 -0.04,0.04 -0.06,0.09 -0.06,0.15 0,0.06 0.02,0.11 0.06,0.15 0.05,0.05 0.13,0.08 0.23,0.08zm-0.14 -1.85l0 0.17c-0.04,0.01 -0.07,0.03 -0.09,0.04 -0.04,0.03 -0.05,0.08 -0.05,0.14 0,0.05 0.02,0.1 0.06,0.13 0.05,0.05 0.13,0.07 0.23,0.07 0.08,0 0.15,-0.02 0.2,-0.05 0.06,-0.04 0.09,-0.09 0.09,-0.16 0,-0.05 -0.01,-0.09 -0.04,-0.12 -0.03,-0.03 -0.06,-0.05 -0.12,-0.06l0 -0.17c0.09,0.02 0.17,0.06 0.22,0.11 0.06,0.06 0.09,0.14 0.09,0.24 0,0.11 -0.04,0.2 -0.11,0.27 -0.08,0.07 -0.18,0.11 -0.32,0.11 -0.14,0 -0.25,-0.04 -0.33,-0.11 -0.07,-0.07 -0.11,-0.16 -0.11,-0.27 0,-0.11 0.03,-0.2 0.1,-0.27 0.05,-0.05 0.12,-0.08 0.19,-0.09zm-0.27 -0.68l0.82 0 0 0.17 -0.82 0 0 -0.17zm0.65 -0.73l0.17 0.06 0 0.18 -0.82 -0.3 0 -0.2 0.82 -0.29 0 0.19 -0.17 0.05 0 0.3zm-0.14 -0.05l0 -0.21 -0.33 0.1 0.33 0.11zm-0.51 -1.17l0.67 0 0 -0.41 0.15 0 0 0.58 -0.82 0 0 -0.17z"/>
   <path class="fil1" d="M0.02 4.37l0.82 0 0 0.16 -0.69 0 0.69 0.16 0 0.17 -0.69 0.15 0.69 0 0 0.16 -0.82 0 0 -0.25 0.65 -0.15 -0.65 -0.15 0 -0.25zm0 -1.16l0.15 0 0 0.44 0.17 0 0 -0.4 0.15 0 0 0.4 0.21 0 0 -0.46 0.15 0 0 0.63 -0.82 0 0 -0.61zm0.82 -0.55l-0.82 0 0 -0.36c0,-0.12 0.05,-0.22 0.14,-0.27 0.07,-0.04 0.15,-0.06 0.25,-0.06 0.11,0 0.2,0.02 0.28,0.07 0.1,0.06 0.15,0.15 0.15,0.27l0 0.36zm-0.68 -0.17l0.54 -0 0 -0.17c0,-0.06 -0.03,-0.11 -0.09,-0.15 -0.05,-0.03 -0.11,-0.04 -0.19,-0.04 -0.11,0 -0.18,0.02 -0.22,0.07 -0.03,0.03 -0.04,0.07 -0.04,0.12l0 0.17zm-0.14 -1.21l0.82 0 0 0.17 -0.82 0 0 -0.17zm0.65 -0.73l0.17 0.06 0 0.18 -0.82 -0.3 0 -0.2 0.82 -0.29 0 0.19 -0.17 0.05 0 0.3zm-0.14 -0.05l0 -0.21 -0.33 0.1 0.33 0.11z"/>
  </g>
 </g>
</svg>
