<?xml version="1.0" encoding="UTF-8"?>
<!DOCTYPE svg PUBLIC "-//W3C//DTD SVG 1.1//EN" "http://www.w3.org/Graphics/SVG/1.1/DTD/svg11.dtd">
<!-- Creator: CorelDRAW 2020 (64-Bit) -->
<svg xmlns="http://www.w3.org/2000/svg" xml:space="preserve" width="6.4562mm" height="6.4562mm" version="1.1" style="shape-rendering:geometricPrecision; text-rendering:geometricPrecision; image-rendering:optimizeQuality; fill-rule:evenodd; clip-rule:evenodd"
viewBox="0 0 6.71 6.71"
 xmlns:xlink="http://www.w3.org/1999/xlink"
 xmlns:xodm="http://www.corel.com/coreldraw/odm/2003">
 <defs>
  <style type="text/css">
   <![CDATA[
    .fil0 {fill:#5F5F5D}
   ]]>
  </style>
 </defs>
 <g id="Capa_x0020_1">
  <metadata id="CorelCorpID_0Corel-Layer"/>
  <path class="fil0" d="M3.36 6.71c1.85,0 3.36,-1.5 3.36,-3.36 0,-1.85 -1.5,-3.36 -3.36,-3.36 -1.85,0 -3.36,1.5 -3.36,3.36 0,0.74 0.24,1.43 0.65,1.98l-0.37 1.15 1.21 -0.34c0.53,0.36 1.18,0.57 1.87,0.57zm-2.1 -5.26c0.52,-0.57 1.28,-0.91 2.05,-0.92 0.61,-0.02 1.22,0.18 1.71,0.53 0.46,0.33 0.82,0.8 1.01,1.34 0.21,0.56 0.22,1.19 0.05,1.76 -0.15,0.52 -0.46,0.98 -0.87,1.33 -0.39,0.33 -0.87,0.56 -1.38,0.64 -0.61,0.1 -1.26,0 -1.81,-0.29 -0.08,-0.04 -0.3,-0.24 -0.38,-0.28 -0.38,0.14 -0.39,0.13 -0.76,0.3 0.12,-0.33 0.16,-0.39 0.27,-0.72 0.01,-0.02 -0.09,-0.13 -0.11,-0.15 -0.19,-0.27 -0.34,-0.57 -0.43,-0.89 -0.11,-0.41 -0.13,-0.85 -0.05,-1.26 0.09,-0.52 0.34,-1 0.7,-1.39l0 0zm0.73 0.49c-0.15,0.15 -0.25,0.35 -0.27,0.56 -0.03,0.3 0.09,0.6 0.25,0.85 0.13,0.18 0.25,0.36 0.4,0.53 0.23,0.26 0.48,0.49 0.78,0.67 0.19,0.11 0.4,0.19 0.61,0.27 0.15,0.05 0.3,0.1 0.46,0.12 0.07,0.01 0.14,-0.01 0.21,-0.02 0.15,-0.02 0.29,-0.1 0.41,-0.19 0.08,-0.06 0.15,-0.13 0.18,-0.23 0.03,-0.11 0.06,-0.23 0.05,-0.34 -0,-0.04 -0.04,-0.06 -0.07,-0.08 -0.18,-0.09 -0.36,-0.18 -0.54,-0.26 -0.07,-0.03 -0.14,-0.07 -0.21,-0.08 -0.04,-0 -0.07,0.03 -0.1,0.06 -0.08,0.1 -0.16,0.21 -0.25,0.3 -0.02,0.03 -0.05,0.06 -0.09,0.06 -0.07,0.01 -0.12,-0.03 -0.18,-0.06 -0.35,-0.15 -0.65,-0.39 -0.88,-0.69 -0.07,-0.1 -0.15,-0.2 -0.2,-0.32 0.01,-0.03 0.02,-0.06 0.04,-0.08 0.07,-0.07 0.13,-0.14 0.19,-0.22 0.03,-0.05 0.06,-0.09 0.06,-0.15 0,-0.05 -0.02,-0.09 -0.04,-0.13 -0.08,-0.19 -0.16,-0.38 -0.24,-0.57 -0.02,-0.05 -0.05,-0.11 -0.11,-0.12 -0.07,-0.01 -0.14,-0 -0.21,-0.01 -0.1,-0.01 -0.19,0.04 -0.26,0.12l0 -0z"/>
 </g>
</svg>
